<svg width="137" height="80" viewBox="0 0 137 80" fill="none" xmlns="http://www.w3.org/2000/svg">
<path d="M6.18 35.22C9.14 33.9 11.94 33.24 14.58 33.24C18.02 33.24 19.78 35.26 19.86 39.3H13.5C10.26 39.3 7.64 40.1 5.64 41.7C3.68 43.3 2.7 45.56 2.7 48.48C2.7 51.28 3.56 53.52 5.28 55.2C7.04 56.88 9.6 57.72 12.96 57.72C14.4 57.72 15.84 57.38 17.28 56.7C18.72 56.02 20 55.14 21.12 54.06L22.14 57H26.64V37.56C26.64 35.6 26.1 33.84 25.02 32.28C23.94 30.68 22.46 29.42 20.58 28.5C18.74 27.58 16.7 27.12 14.46 27.12C13.1 27.12 11.32 27.38 9.12 27.9C6.96 28.42 5.36 29.02 4.32 29.7L6.18 35.22ZM8.58 48.48C8.58 47.16 9 46.06 9.84 45.18C10.72 44.26 11.9 43.8 13.38 43.8H19.92V49.02C18.92 50.06 17.8 50.88 16.56 51.48C15.32 52.08 14.08 52.38 12.84 52.38C11.52 52.38 10.48 52 9.72 51.24C8.96 50.44 8.58 49.52 8.58 48.48ZM40.0828 38.46C41.6828 37.02 43.4428 35.8 45.3628 34.8C47.2828 33.8 48.9628 33.3 50.4028 33.3L49.0228 27.9C47.6228 27.9 45.9828 28.4 44.1028 29.4C42.2628 30.4 40.6228 31.5 39.1828 32.7L36.9628 27.9H33.3628V57H40.0828V38.46ZM67.4766 27.12C70.4366 27.12 73.0166 27.76 75.2166 29.04C77.4166 30.28 79.0966 32.06 80.2566 34.38C81.4566 36.7 82.0566 39.42 82.0566 42.54C82.0566 45.54 81.4566 48.2 80.2566 50.52C79.0566 52.8 77.3366 54.58 75.0966 55.86C72.8966 57.14 70.3166 57.78 67.3566 57.78C66.2766 57.78 65.0566 57.54 63.6966 57.06C62.3766 56.58 61.1366 55.94 59.9766 55.14L58.5966 57H55.0566V15.3L61.7766 14.64V28.68C63.7366 27.64 65.6366 27.12 67.4766 27.12ZM67.3566 51.96C69.7566 51.96 71.6366 51.08 72.9966 49.32C74.3966 47.56 75.0966 45.3 75.0966 42.54C75.0966 39.66 74.4166 37.34 73.0566 35.58C71.6966 33.78 69.7966 32.88 67.3566 32.88C66.3166 32.88 65.3366 33.04 64.4166 33.36C63.5366 33.68 62.6566 34.16 61.7766 34.8V50.16C63.4166 51.36 65.2766 51.96 67.3566 51.96ZM112.592 42.24C112.592 37.84 111.492 34.22 109.292 31.38C107.092 28.54 103.852 27.12 99.5719 27.12C96.6519 27.12 94.1119 27.76 91.9519 29.04C89.8319 30.32 88.1919 32.12 87.0319 34.44C85.9119 36.72 85.3519 39.38 85.3519 42.42C85.3519 47.14 86.7319 50.88 89.4919 53.64C92.2919 56.36 96.3319 57.72 101.612 57.72C105.532 57.72 109.112 56.6 112.352 54.36L110.312 49.44C108.592 50.32 107.112 50.98 105.872 51.42C104.672 51.82 103.292 52.02 101.732 52.02C96.1319 52.02 93.0319 49.42 92.4319 44.22H112.592V42.24ZM92.5519 39.72C92.8319 37.56 93.5519 35.88 94.7119 34.68C95.9119 33.48 97.4719 32.88 99.3919 32.88C101.272 32.88 102.772 33.46 103.892 34.62C105.012 35.78 105.752 37.48 106.112 39.72H92.5519ZM124.399 38.46C125.999 37.02 127.759 35.8 129.679 34.8C131.599 33.8 133.279 33.3 134.719 33.3L133.339 27.9C131.939 27.9 130.299 28.4 128.419 29.4C126.579 30.4 124.939 31.5 123.499 32.7L121.279 27.9H117.679V57H124.399V38.46Z" fill="#99BAED"/>
</svg>
